<?xml version="1.0" standalone="no"?>
<!DOCTYPE svg PUBLIC "-//W3C//DTD SVG 20010904//EN"
 "http://www.w3.org/TR/2001/REC-SVG-20010904/DTD/svg10.dtd">
<svg version="1.0" xmlns="http://www.w3.org/2000/svg"
 width="720.000000pt" height="720.000000pt" viewBox="0 0 720.000000 720.000000"
 preserveAspectRatio="xMidYMid meet">
<metadata>
Created by potrace 1.14, written by Peter Selinger 2001-2017
</metadata>
<g transform="translate(0.000000,720.000000) scale(0.100000,-0.100000)"
fill="#000000" stroke="none">
<path d="M1774 4351 c-248 -67 -416 -263 -469 -546 -23 -123 -16 -365 14 -480
69 -262 233 -426 471 -471 109 -21 301 -14 412 15 124 32 118 25 118 146 0 59
-4 105 -9 105 -6 0 -56 -11 -113 -25 -399 -97 -606 30 -648 397 -33 281 56
514 229 606 125 67 272 60 463 -22 l38 -16 50 100 c27 55 50 102 50 105 0 10
-102 55 -172 76 -108 31 -336 37 -434 10z"/>
<path d="M4044 4355 c-132 -29 -244 -111 -293 -215 -23 -49 -26 -67 -26 -170
0 -108 2 -119 31 -180 58 -120 151 -190 356 -270 154 -60 256 -110 281 -138
39 -43 46 -89 47 -289 0 -106 4 -193 8 -193 21 0 120 80 154 125 49 65 68 121
75 221 7 97 -12 175 -62 251 -49 73 -153 138 -344 214 -261 103 -304 140 -304
260 0 99 55 152 175 169 103 15 289 -19 424 -76 10 -4 101 212 93 221 -12 12
-168 57 -243 70 -107 18 -288 18 -372 0z"/>
<path d="M4870 3605 l0 -745 105 0 105 0 2 496 3 496 100 -496 100 -496 100 0
100 0 105 507 105 507 3 -507 2 -507 105 0 105 0 0 745 0 745 -153 0 -153 0
-103 -552 c-56 -304 -106 -566 -109 -581 -5 -20 -37 131 -106 505 -54 293
-103 554 -108 581 l-10 47 -149 0 -149 0 0 -745z"/>
<path d="M2710 4305 c-65 -33 -128 -98 -158 -163 -24 -51 -27 -68 -27 -172 0
-108 2 -119 31 -180 59 -122 149 -189 367 -275 239 -93 297 -135 312 -224 16
-94 -46 -186 -145 -215 -70 -21 -237 -21 -336 0 -42 8 -115 28 -162 45 -48 16
-88 29 -89 29 -2 0 -3 -53 -3 -119 l0 -118 63 -21 c123 -40 178 -47 357 -46
162 0 181 2 256 27 136 45 241 138 280 247 25 72 30 195 10 266 -42 146 -135
222 -395 325 -305 120 -303 118 -311 410 l-5 207 -45 -23z"/>
</g>
</svg>
